<svg width="28" height="28" viewBox="0 0 28 28" fill="none" xmlns="http://www.w3.org/2000/svg">
<g filter="url(#filter0_d_2_168)">
<path fill-rule="evenodd" clip-rule="evenodd" d="M3.99999 11.713C3.99999 6.08198 4.614 6.47498 7.919 3.41298C9.365 2.24898 11.619 0.00299072 13.558 0.00299072C15.497 0.00299072 17.795 2.23798 19.258 3.41298C22.563 6.47798 23.176 6.08498 23.176 11.713C23.176 20 21.217 20 13.59 20C5.96299 20 3.99999 20 3.99999 11.713Z" fill="white"/>
<path d="M4.49999 11.713C4.49999 8.87842 4.6634 7.70385 5.15389 6.84828C5.39878 6.42113 5.74038 6.04857 6.25134 5.57732C6.47199 5.37382 6.71756 5.15779 6.99648 4.91243C7.04084 4.8734 7.08605 4.83363 7.13213 4.79305C7.46268 4.50199 7.83335 4.17363 8.24612 3.79151C8.50265 3.58459 8.7713 3.35598 9.05192 3.11719C9.60371 2.64765 10.2018 2.13874 10.8449 1.67791C11.8223 0.977533 12.7582 0.502991 13.558 0.502991C14.3598 0.502991 15.3075 0.976618 16.2982 1.67586C16.9687 2.14909 17.5974 2.67818 18.1723 3.162C18.437 3.38477 18.6903 3.59794 18.931 3.79163C19.3436 4.174 19.7142 4.50259 20.0446 4.79386C20.0908 4.83453 20.136 4.87438 20.1804 4.91349C20.4592 5.15903 20.7047 5.37522 20.9253 5.57885C21.4362 6.05049 21.7777 6.42325 22.0225 6.85045C22.5128 7.70605 22.676 8.87993 22.676 11.713C22.676 13.7743 22.5531 15.2762 22.2668 16.3782C21.9839 17.467 21.5515 18.1273 20.9515 18.5579C20.3357 19 19.4798 19.2468 18.2542 19.3731C17.0293 19.4994 15.5062 19.5 13.59 19.5C11.6738 19.5 10.1504 19.4994 8.92516 19.3731C7.69911 19.2468 6.84271 19 6.2263 18.5578C5.62585 18.1271 5.19304 17.4667 4.90977 16.378C4.62309 15.2762 4.49999 13.7742 4.49999 11.713Z" stroke="#D4DFDE"/>
</g>
<defs>
<filter id="filter0_d_2_168" x="-7.62939e-06" y="0.00299072" width="27.176" height="27.997" filterUnits="userSpaceOnUse" color-interpolation-filters="sRGB">
<feFlood flood-opacity="0" result="BackgroundImageFix"/>
<feColorMatrix in="SourceAlpha" type="matrix" values="0 0 0 0 0 0 0 0 0 0 0 0 0 0 0 0 0 0 127 0" result="hardAlpha"/>
<feOffset dy="4"/>
<feGaussianBlur stdDeviation="2"/>
<feComposite in2="hardAlpha" operator="out"/>
<feColorMatrix type="matrix" values="0 0 0 0 0 0 0 0 0 0 0 0 0 0 0 0 0 0 0.25 0"/>
<feBlend mode="normal" in2="BackgroundImageFix" result="effect1_dropShadow_2_168"/>
<feBlend mode="normal" in="SourceGraphic" in2="effect1_dropShadow_2_168" result="shape"/>
</filter>
</defs>
</svg>
